<svg width="32" height="27" viewBox="0 0 32 27" fill="none" xmlns="http://www.w3.org/2000/svg">
<path d="M2.58789 7.3877C3.57687 7.1878 4.79712 7.2304 6.21484 7.39258C7.63662 7.55524 9.17901 7.82742 10.8486 8.06641C12.5018 8.30304 14.2471 8.50098 16.001 8.50098C17.7992 8.50097 19.5745 8.32511 21.2461 8.12305C22.9296 7.91954 24.4866 7.69312 25.8984 7.58301C27.3104 7.4729 28.5136 7.48521 29.4775 7.73438C30.3782 7.96726 31.0513 8.40147 31.501 9.13672V17.501C31.501 19.8771 29.876 22.1168 27.0596 23.7891C24.2539 25.4549 20.3451 26.501 16.001 26.501C11.6568 26.501 7.74809 25.4549 4.94238 23.7891C2.12589 22.1168 0.500977 19.8771 0.500977 17.501C0.500976 16.9177 0.500217 14.6677 0.5 12.5635V8.65039C0.975181 7.96315 1.66781 7.57366 2.58789 7.3877Z" fill="#CC001B" stroke="white"/>
<path d="M16 0.5C20.3442 0.5 24.2529 1.547 27.0586 3.21289C29.8749 4.88516 31.5 7.12397 31.5 9.5C31.5 11.876 29.8749 14.1148 27.0586 15.7871C24.2529 17.453 20.3442 18.5 16 18.5C11.6558 18.5 7.74711 17.453 4.94141 15.7871C2.12511 14.1148 0.5 11.876 0.5 9.5C0.5 7.12397 2.12511 4.88516 4.94141 3.21289C7.74711 1.547 11.6558 0.5 16 0.5Z" fill="#FF2340" stroke="white"/>
</svg>
