<svg width="70" height="70" viewBox="0 0 70 70" fill="none" xmlns="http://www.w3.org/2000/svg">
<path d="M35 1.5C53.5015 1.5 68.5 16.4985 68.5 35C68.5 53.5015 53.5015 68.5 35 68.5C16.4985 68.5 1.5 53.5015 1.5 35C1.5 16.4985 16.4985 1.5 35 1.5Z" fill="white"/>
<path d="M35 1.5C53.5015 1.5 68.5 16.4985 68.5 35C68.5 53.5015 53.5015 68.5 35 68.5C16.4985 68.5 1.5 53.5015 1.5 35C1.5 16.4985 16.4985 1.5 35 1.5Z" stroke="url(#paint0_linear_6199_54885)" stroke-width="3"/>
<path d="M44.4201 36.7185C36.104 38.0861 34.6256 39.8232 33.5168 49.9504C33.4798 50.283 32.9994 50.283 32.9624 49.9504C31.8536 39.8232 30.3752 38.123 22.0591 36.7185C21.7264 36.6816 21.7264 36.2011 22.0591 36.1641C30.3752 34.7966 31.8536 33.0964 32.9624 22.9692C32.9994 22.6366 33.4798 22.6366 33.5168 22.9692C34.6256 33.0964 36.104 34.7596 44.4201 36.1641C44.7158 36.2011 44.7158 36.6446 44.4201 36.7185Z" fill="url(#paint1_linear_6199_54885)"/>
<path d="M47.9685 25.039C45.3812 25.5564 44.642 26.4065 44.1985 29.4373C44.1615 29.7699 43.681 29.7699 43.6441 29.4373C43.2005 26.4065 42.4613 25.5564 39.8741 25.002C39.5784 24.9281 39.5784 24.5215 39.8741 24.4476C42.4244 23.9301 43.2005 23.08 43.6441 20.0493C43.681 19.7166 44.1615 19.7166 44.1985 20.0493C44.642 23.08 45.3812 23.9301 47.9685 24.4845C48.2641 24.5585 48.2641 25.002 47.9685 25.039Z" fill="url(#paint2_linear_6199_54885)"/>
<defs>
<linearGradient id="paint0_linear_6199_54885" x1="18" y1="8" x2="56.5" y2="59.5" gradientUnits="userSpaceOnUse">
<stop stop-color="#0599F5"/>
<stop offset="1" stop-color="#D104FF"/>
</linearGradient>
<linearGradient id="paint1_linear_6199_54885" x1="29" y1="27.5" x2="36" y2="44.5" gradientUnits="userSpaceOnUse">
<stop stop-color="#0499F5"/>
<stop offset="1" stop-color="#D103FF"/>
</linearGradient>
<linearGradient id="paint2_linear_6199_54885" x1="42.5" y1="22.5" x2="45.5" y2="28.5" gradientUnits="userSpaceOnUse">
<stop stop-color="#0599F5"/>
<stop offset="1" stop-color="#D104FF"/>
</linearGradient>
</defs>
</svg>
